# xmcd
#
# Track frame offsets:
# 150
# 7175
# 14813
# 23258
# 31427
# 41040
# 52797
# 63334
# 73330
# 82555
# 90678
# 98929
# 109747
# 117749
# 126149
# 134699
# 142049
# 149736
#
# Disc length: 2096 seconds
#
#
# Revision: 0
# Processed by: cddbd v1.5.2PL0 Copyright (c) Steve Scherf et al.
# Submitted via: FreeRIP 2.96 
#
DISCID=08082e12
DTITLE=Phil Trigwell and Los Bandhagos - Boggie Woogie Cowboy
DYEAR=1900
DGENRE=Country
TTITLE0=Rock, Bop, Jump and Jive
TTITLE1=Freight Train Boogie
TTITLE2=They just wanna Rock´n´Roll
TTITLE3=Boggie Woogie Cowboy
TTITLE4=I´ll never forget
TTITLE5=No Good Lover
TTITLE6=When Payday rolls around
TTITLE7=Welcome to Paradise
TTITLE8=Hillbilly Express
TTITLE9=Pretty Patty Baby
TTITLE10=Sugar Moon
TTITLE11=Travelling Light
TTITLE12=Milk Bucket Boogie
TTITLE13=Since you went away to School
TTITLE14=Hooray for that Little Difference
TTITLE15=Trouble Finds me
TTITLE16=A Picture of Me
TTITLE17=Adios Bandhagos
EXTD=
EXTT0=
EXTT1=
EXTT2=
EXTT3=
EXTT4=
EXTT5=
EXTT6=
EXTT7=
EXTT8=
EXTT9=
EXTT10=
EXTT11=
EXTT12=
EXTT13=
EXTT14=
EXTT15=
EXTT16=
EXTT17=
PLAYORDER=
